<?xml version="1.0" encoding="UTF-8" standalone="no"?>
<!DOCTYPE svg PUBLIC "-//W3C//DTD SVG 1.1//EN"
 "http://www.w3.org/Graphics/SVG/1.1/DTD/svg11.dtd">
<!-- Generated by graphviz version 2.47.0 (20210316.0004)
 -->
<!-- Title: dependencies Pages: 1 -->
<svg width="2890pt" height="284pt"
 viewBox="0.00 0.00 2890.00 284.00" xmlns="http://www.w3.org/2000/svg" xmlns:xlink="http://www.w3.org/1999/xlink">
<g id="graph0" class="graph" transform="scale(1 1) rotate(0) translate(4 280)">
<title>dependencies</title>
<polygon fill="white" stroke="transparent" points="-4,4 -4,-280 2886,-280 2886,4 -4,4"/>
<text text-anchor="start" x="1420.01" y="-42.4" font-family="sans-serif" font-weight="bold" font-size="14.00">Legend</text>
<polygon fill="#ffffb3" stroke="transparent" points="1207,-10 1207,-30 1227,-30 1227,-10 1207,-10"/>
<text text-anchor="start" x="1230.63" y="-15.4" font-family="sans-serif" font-size="14.00"> &#160;Declarations</text>
<polygon fill="#8dd3c7" stroke="transparent" points="1320,-10 1320,-30 1340,-30 1340,-10 1320,-10"/>
<text text-anchor="start" x="1343.73" y="-15.4" font-family="sans-serif" font-size="14.00"> &#160;Module</text>
<polygon fill="#80b1d3" stroke="transparent" points="1406,-10 1406,-30 1426,-30 1426,-10 1406,-10"/>
<text text-anchor="start" x="1429.78" y="-15.4" font-family="sans-serif" font-size="14.00"> &#160;Bootstrap</text>
<polygon fill="#fdb462" stroke="transparent" points="1503,-10 1503,-30 1523,-30 1523,-10 1503,-10"/>
<text text-anchor="start" x="1526.67" y="-15.4" font-family="sans-serif" font-size="14.00"> &#160;Providers</text>
<polygon fill="#fb8072" stroke="transparent" points="1599,-10 1599,-30 1619,-30 1619,-10 1599,-10"/>
<text text-anchor="start" x="1622.73" y="-15.4" font-family="sans-serif" font-size="14.00"> &#160;Exports</text>
<g id="clust1" class="cluster">
<title>cluster_AppModule</title>
<polygon fill="none" stroke="black" stroke-dasharray="1,5" points="8,-70 8,-268 2874,-268 2874,-70 8,-70"/>
</g>
<g id="clust2" class="cluster">
<title>cluster_AppModule_declarations</title>
<polygon fill="none" stroke="black" points="168,-78 168,-130 2866,-130 2866,-78 168,-78"/>
</g>
<g id="clust22" class="cluster">
<title>cluster_AppModule_bootstrap</title>
<polygon fill="none" stroke="black" points="1373,-208 1373,-260 1497,-260 1497,-208 1373,-208"/>
</g>
<g id="clust20" class="cluster">
<title>cluster_AppModule_imports</title>
<polygon fill="none" stroke="black" points="16,-78 16,-130 160,-130 160,-78 16,-78"/>
</g>
<!-- AlertasComponent -->
<g id="node1" class="node">
<title>AlertasComponent</title>
<polygon fill="#ffffb3" stroke="black" points="2857.75,-122 2736.25,-122 2736.25,-86 2857.75,-86 2857.75,-122"/>
<text text-anchor="middle" x="2797" y="-99.8" font-family="Times,serif" font-size="14.00">AlertasComponent</text>
</g>
<!-- AppModule -->
<g id="node18" class="node">
<title>AppModule</title>
<polygon fill="#8dd3c7" stroke="black" points="1476.66,-187 1473.66,-191 1452.66,-191 1449.66,-187 1393.34,-187 1393.34,-151 1476.66,-151 1476.66,-187"/>
<text text-anchor="middle" x="1435" y="-164.8" font-family="Times,serif" font-size="14.00">AppModule</text>
</g>
<!-- AlertasComponent&#45;&gt;AppModule -->
<g id="edge1" class="edge">
<title>AlertasComponent&#45;&gt;AppModule</title>
<path fill="none" stroke="black" d="M2817.29,-122.15C2817.29,-145.76 2817.29,-184 2817.29,-184 2817.29,-184 1486.75,-184 1486.75,-184"/>
<polygon fill="black" stroke="black" points="1486.75,-180.5 1476.75,-184 1486.75,-187.5 1486.75,-180.5"/>
</g>
<!-- AlertasComponent&#45;&gt;AppModule -->
<g id="edge2" class="edge">
<title>AlertasComponent&#45;&gt;AppModule</title>
<path fill="none" stroke="black" d="M2776.71,-122.01C2776.71,-144.49 2776.71,-180 2776.71,-180 2776.71,-180 1487,-180 1487,-180"/>
<polygon fill="black" stroke="black" points="1487,-176.5 1477,-180 1487,-183.5 1487,-176.5"/>
</g>
<!-- AppComponent -->
<g id="node2" class="node">
<title>AppComponent</title>
<polygon fill="#ffffb3" stroke="black" points="2717.94,-122 2612.06,-122 2612.06,-86 2717.94,-86 2717.94,-122"/>
<text text-anchor="middle" x="2665" y="-99.8" font-family="Times,serif" font-size="14.00">AppComponent</text>
</g>
<!-- AppComponent&#45;&gt;AppModule -->
<g id="edge3" class="edge">
<title>AppComponent&#45;&gt;AppModule</title>
<path fill="none" stroke="black" d="M2665,-122.04C2665,-143.66 2665,-177 2665,-177 2665,-177 1486.98,-177 1486.98,-177"/>
<polygon fill="black" stroke="black" points="1486.98,-173.5 1476.98,-177 1486.98,-180.5 1486.98,-173.5"/>
</g>
<!-- CadastroProdutoComponent -->
<g id="node3" class="node">
<title>CadastroProdutoComponent</title>
<polygon fill="#ffffb3" stroke="black" points="2594.93,-122 2419.07,-122 2419.07,-86 2594.93,-86 2594.93,-122"/>
<text text-anchor="middle" x="2507" y="-99.8" font-family="Times,serif" font-size="14.00">CadastroProdutoComponent</text>
</g>
<!-- CadastroProdutoComponent&#45;&gt;AppModule -->
<g id="edge4" class="edge">
<title>CadastroProdutoComponent&#45;&gt;AppModule</title>
<path fill="none" stroke="black" d="M2507,-122.13C2507,-142.57 2507,-173 2507,-173 2507,-173 1486.69,-173 1486.69,-173"/>
<polygon fill="black" stroke="black" points="1486.69,-169.5 1476.69,-173 1486.69,-176.5 1486.69,-169.5"/>
</g>
<!-- CadastroUsuarioComponent -->
<g id="node4" class="node">
<title>CadastroUsuarioComponent</title>
<polygon fill="#ffffb3" stroke="black" points="2401.91,-122 2226.09,-122 2226.09,-86 2401.91,-86 2401.91,-122"/>
<text text-anchor="middle" x="2314" y="-99.8" font-family="Times,serif" font-size="14.00">CadastroUsuarioComponent</text>
</g>
<!-- CadastroUsuarioComponent&#45;&gt;AppModule -->
<g id="edge5" class="edge">
<title>CadastroUsuarioComponent&#45;&gt;AppModule</title>
<path fill="none" stroke="black" d="M2314,-122.11C2314,-141.34 2314,-169 2314,-169 2314,-169 1486.8,-169 1486.8,-169"/>
<polygon fill="black" stroke="black" points="1486.8,-165.5 1476.8,-169 1486.8,-172.5 1486.8,-165.5"/>
</g>
<!-- CategoriaComponent -->
<g id="node5" class="node">
<title>CategoriaComponent</title>
<polygon fill="#ffffb3" stroke="black" points="2207.75,-122 2072.25,-122 2072.25,-86 2207.75,-86 2207.75,-122"/>
<text text-anchor="middle" x="2140" y="-99.8" font-family="Times,serif" font-size="14.00">CategoriaComponent</text>
</g>
<!-- CategoriaComponent&#45;&gt;AppModule -->
<g id="edge6" class="edge">
<title>CategoriaComponent&#45;&gt;AppModule</title>
<path fill="none" stroke="black" d="M2140,-122.27C2140,-140.56 2140,-166 2140,-166 2140,-166 1486.73,-166 1486.73,-166"/>
<polygon fill="black" stroke="black" points="1486.73,-162.5 1476.73,-166 1486.73,-169.5 1486.73,-162.5"/>
</g>
<!-- CategoriaDeleteComponent -->
<g id="node6" class="node">
<title>CategoriaDeleteComponent</title>
<polygon fill="#ffffb3" stroke="black" points="2054.29,-122 1881.71,-122 1881.71,-86 2054.29,-86 2054.29,-122"/>
<text text-anchor="middle" x="1968" y="-99.8" font-family="Times,serif" font-size="14.00">CategoriaDeleteComponent</text>
</g>
<!-- CategoriaDeleteComponent&#45;&gt;AppModule -->
<g id="edge7" class="edge">
<title>CategoriaDeleteComponent&#45;&gt;AppModule</title>
<path fill="none" stroke="black" d="M1968,-122.03C1968,-139.06 1968,-162 1968,-162 1968,-162 1486.82,-162 1486.82,-162"/>
<polygon fill="black" stroke="black" points="1486.82,-158.5 1476.82,-162 1486.82,-165.5 1486.82,-158.5"/>
</g>
<!-- CategoriaEditComponent -->
<g id="node7" class="node">
<title>CategoriaEditComponent</title>
<polygon fill="#ffffb3" stroke="black" points="1863.59,-122 1704.41,-122 1704.41,-86 1863.59,-86 1863.59,-122"/>
<text text-anchor="middle" x="1784" y="-99.8" font-family="Times,serif" font-size="14.00">CategoriaEditComponent</text>
</g>
<!-- CategoriaEditComponent&#45;&gt;AppModule -->
<g id="edge8" class="edge">
<title>CategoriaEditComponent&#45;&gt;AppModule</title>
<path fill="none" stroke="black" d="M1784,-122.01C1784,-138.05 1784,-159 1784,-159 1784,-159 1486.75,-159 1486.75,-159"/>
<polygon fill="black" stroke="black" points="1486.75,-155.5 1476.75,-159 1486.75,-162.5 1486.75,-155.5"/>
</g>
<!-- ConsultaProdutoComponent -->
<g id="node8" class="node">
<title>ConsultaProdutoComponent</title>
<polygon fill="#ffffb3" stroke="black" points="1686.94,-122 1511.06,-122 1511.06,-86 1686.94,-86 1686.94,-122"/>
<text text-anchor="middle" x="1599" y="-99.8" font-family="Times,serif" font-size="14.00">ConsultaProdutoComponent</text>
</g>
<!-- ConsultaProdutoComponent&#45;&gt;AppModule -->
<g id="edge9" class="edge">
<title>ConsultaProdutoComponent&#45;&gt;AppModule</title>
<path fill="none" stroke="black" d="M1599,-122.12C1599,-136.78 1599,-155 1599,-155 1599,-155 1486.81,-155 1486.81,-155"/>
<polygon fill="black" stroke="black" points="1486.81,-151.5 1476.81,-155 1486.81,-158.5 1486.81,-151.5"/>
</g>
<!-- EntrarComponent -->
<g id="node9" class="node">
<title>EntrarComponent</title>
<polygon fill="#ffffb3" stroke="black" points="1493.31,-122 1376.69,-122 1376.69,-86 1493.31,-86 1493.31,-122"/>
<text text-anchor="middle" x="1435" y="-99.8" font-family="Times,serif" font-size="14.00">EntrarComponent</text>
</g>
<!-- EntrarComponent&#45;&gt;AppModule -->
<g id="edge10" class="edge">
<title>EntrarComponent&#45;&gt;AppModule</title>
<path fill="none" stroke="black" d="M1435,-122.11C1435,-122.11 1435,-140.99 1435,-140.99"/>
<polygon fill="black" stroke="black" points="1431.5,-140.99 1435,-150.99 1438.5,-140.99 1431.5,-140.99"/>
</g>
<!-- InicioComponent -->
<g id="node10" class="node">
<title>InicioComponent</title>
<polygon fill="#ffffb3" stroke="black" points="1358.99,-122 1245.01,-122 1245.01,-86 1358.99,-86 1358.99,-122"/>
<text text-anchor="middle" x="1302" y="-99.8" font-family="Times,serif" font-size="14.00">InicioComponent</text>
</g>
<!-- InicioComponent&#45;&gt;AppModule -->
<g id="edge11" class="edge">
<title>InicioComponent&#45;&gt;AppModule</title>
<path fill="none" stroke="black" d="M1302,-122.12C1302,-136.78 1302,-155 1302,-155 1302,-155 1383.28,-155 1383.28,-155"/>
<polygon fill="black" stroke="black" points="1383.28,-158.5 1393.28,-155 1383.28,-151.5 1383.28,-158.5"/>
</g>
<!-- MenuComponent -->
<g id="node11" class="node">
<title>MenuComponent</title>
<polygon fill="#ffffb3" stroke="black" points="1226.99,-122 1113.01,-122 1113.01,-86 1226.99,-86 1226.99,-122"/>
<text text-anchor="middle" x="1170" y="-99.8" font-family="Times,serif" font-size="14.00">MenuComponent</text>
</g>
<!-- MenuComponent&#45;&gt;AppModule -->
<g id="edge12" class="edge">
<title>MenuComponent&#45;&gt;AppModule</title>
<path fill="none" stroke="black" d="M1170,-122.01C1170,-138.05 1170,-159 1170,-159 1170,-159 1383.3,-159 1383.3,-159"/>
<polygon fill="black" stroke="black" points="1383.3,-162.5 1393.3,-159 1383.3,-155.5 1383.3,-162.5"/>
</g>
<!-- PesquisaComponent -->
<g id="node12" class="node">
<title>PesquisaComponent</title>
<polygon fill="#ffffb3" stroke="black" points="1095.32,-122 964.68,-122 964.68,-86 1095.32,-86 1095.32,-122"/>
<text text-anchor="middle" x="1030" y="-99.8" font-family="Times,serif" font-size="14.00">PesquisaComponent</text>
</g>
<!-- PesquisaComponent&#45;&gt;AppModule -->
<g id="edge13" class="edge">
<title>PesquisaComponent&#45;&gt;AppModule</title>
<path fill="none" stroke="black" d="M1030,-122.03C1030,-139.06 1030,-162 1030,-162 1030,-162 1383.18,-162 1383.18,-162"/>
<polygon fill="black" stroke="black" points="1383.18,-165.5 1393.18,-162 1383.18,-158.5 1383.18,-165.5"/>
</g>
<!-- ProdutoDeleteComponent -->
<g id="node13" class="node">
<title>ProdutoDeleteComponent</title>
<polygon fill="#ffffb3" stroke="black" points="947.2,-122 784.8,-122 784.8,-86 947.2,-86 947.2,-122"/>
<text text-anchor="middle" x="866" y="-99.8" font-family="Times,serif" font-size="14.00">ProdutoDeleteComponent</text>
</g>
<!-- ProdutoDeleteComponent&#45;&gt;AppModule -->
<g id="edge14" class="edge">
<title>ProdutoDeleteComponent&#45;&gt;AppModule</title>
<path fill="none" stroke="black" d="M866,-122.27C866,-140.56 866,-166 866,-166 866,-166 1383.16,-166 1383.16,-166"/>
<polygon fill="black" stroke="black" points="1383.16,-169.5 1393.16,-166 1383.16,-162.5 1383.16,-169.5"/>
</g>
<!-- ProdutoEditComponent -->
<g id="node14" class="node">
<title>ProdutoEditComponent</title>
<polygon fill="#ffffb3" stroke="black" points="766.5,-122 617.5,-122 617.5,-86 766.5,-86 766.5,-122"/>
<text text-anchor="middle" x="692" y="-99.8" font-family="Times,serif" font-size="14.00">ProdutoEditComponent</text>
</g>
<!-- ProdutoEditComponent&#45;&gt;AppModule -->
<g id="edge15" class="edge">
<title>ProdutoEditComponent&#45;&gt;AppModule</title>
<path fill="none" stroke="black" d="M692,-122.11C692,-141.34 692,-169 692,-169 692,-169 1383.19,-169 1383.19,-169"/>
<polygon fill="black" stroke="black" points="1383.19,-172.5 1393.19,-169 1383.19,-165.5 1383.19,-172.5"/>
</g>
<!-- ReservasComponent -->
<g id="node15" class="node">
<title>ReservasComponent</title>
<polygon fill="#ffffb3" stroke="black" points="599.86,-122 468.14,-122 468.14,-86 599.86,-86 599.86,-122"/>
<text text-anchor="middle" x="534" y="-99.8" font-family="Times,serif" font-size="14.00">ReservasComponent</text>
</g>
<!-- ReservasComponent&#45;&gt;AppModule -->
<g id="edge16" class="edge">
<title>ReservasComponent&#45;&gt;AppModule</title>
<path fill="none" stroke="black" d="M534,-122.13C534,-142.57 534,-173 534,-173 534,-173 1383.05,-173 1383.05,-173"/>
<polygon fill="black" stroke="black" points="1383.05,-176.5 1393.05,-173 1383.05,-169.5 1383.05,-176.5"/>
</g>
<!-- RodapeComponent -->
<g id="node16" class="node">
<title>RodapeComponent</title>
<polygon fill="#ffffb3" stroke="black" points="450.1,-122 325.9,-122 325.9,-86 450.1,-86 450.1,-122"/>
<text text-anchor="middle" x="388" y="-99.8" font-family="Times,serif" font-size="14.00">RodapeComponent</text>
</g>
<!-- RodapeComponent&#45;&gt;AppModule -->
<g id="edge17" class="edge">
<title>RodapeComponent&#45;&gt;AppModule</title>
<path fill="none" stroke="black" d="M388,-122.04C388,-143.66 388,-177 388,-177 388,-177 1383.31,-177 1383.31,-177"/>
<polygon fill="black" stroke="black" points="1383.31,-180.5 1393.31,-177 1383.31,-173.5 1383.31,-180.5"/>
</g>
<!-- UserEditComponent -->
<g id="node17" class="node">
<title>UserEditComponent</title>
<polygon fill="#ffffb3" stroke="black" points="307.59,-122 176.41,-122 176.41,-86 307.59,-86 307.59,-122"/>
<text text-anchor="middle" x="242" y="-99.8" font-family="Times,serif" font-size="14.00">UserEditComponent</text>
</g>
<!-- UserEditComponent&#45;&gt;AppModule -->
<g id="edge18" class="edge">
<title>UserEditComponent&#45;&gt;AppModule</title>
<path fill="none" stroke="black" d="M242,-122.01C242,-144.49 242,-180 242,-180 242,-180 1383.24,-180 1383.24,-180"/>
<polygon fill="black" stroke="black" points="1383.24,-183.5 1393.24,-180 1383.24,-176.5 1383.24,-183.5"/>
</g>
<!-- AppComponent  -->
<g id="node20" class="node">
<title>AppComponent </title>
<polygon fill="#80b1d3" stroke="black" points="1489.44,-252 1380.56,-252 1380.56,-216 1489.44,-216 1489.44,-252"/>
<text text-anchor="middle" x="1435" y="-229.8" font-family="Times,serif" font-size="14.00">AppComponent </text>
</g>
<!-- AppModule&#45;&gt;AppComponent  -->
<g id="edge20" class="edge">
<title>AppModule&#45;&gt;AppComponent </title>
<path fill="none" stroke="black" stroke-dasharray="1,5" d="M1435,-187.11C1435,-187.11 1435,-205.99 1435,-205.99"/>
<polygon fill="black" stroke="black" points="1431.5,-205.99 1435,-215.99 1438.5,-205.99 1431.5,-205.99"/>
</g>
<!-- AppRoutingModule -->
<g id="node19" class="node">
<title>AppRoutingModule</title>
<polygon fill="#8dd3c7" stroke="black" points="152.27,-122 149.27,-126 128.27,-126 125.27,-122 23.73,-122 23.73,-86 152.27,-86 152.27,-122"/>
<text text-anchor="middle" x="88" y="-99.8" font-family="Times,serif" font-size="14.00">AppRoutingModule</text>
</g>
<!-- AppRoutingModule&#45;&gt;AppModule -->
<g id="edge19" class="edge">
<title>AppRoutingModule&#45;&gt;AppModule</title>
<path fill="none" stroke="black" d="M88,-122.15C88,-145.76 88,-184 88,-184 88,-184 1383.21,-184 1383.21,-184"/>
<polygon fill="black" stroke="black" points="1383.21,-187.5 1393.21,-184 1383.21,-180.5 1383.21,-187.5"/>
</g>
</g>
</svg>
